<?xml version="1.0" encoding="UTF-8"?>
<svg version="1.1" xmlns="http://www.w3.org/2000/svg" width="96" height="96">
<path d="M0 0 C4.1517045 3.79068672 6.75325474 8.51868381 9.375 13.4375 C9.75785156 14.10007812 10.14070313 14.76265625 10.53515625 15.4453125 C11.5407195 17.83060208 11.5757981 19.61036467 11.5 22.1875 C11.48195313 22.98671875 11.46390625 23.7859375 11.4453125 24.609375 C11.42210938 25.21265625 11.39890625 25.8159375 11.375 26.4375 C10.055 26.7675 8.735 27.0975 7.375 27.4375 C4.5954017 24.08194889 2.97862554 20.51914311 1.1875 16.5625 C-1.64749591 10.55761121 -4.7470165 6.64367282 -10.625 3.4375 C-9.17218935 8.76447239 -5.54388622 11.80152802 -1.625 15.4375 C-2.285 17.0875 -2.945 18.7375 -3.625 20.4375 C-7.21768498 20.52731712 -9.15640411 19.86746612 -11.8046875 17.4375 C-17.625 10.97508897 -17.625 10.97508897 -17.625 8.4375 C-18.285 8.4375 -18.945 8.4375 -19.625 8.4375 C-20.92125273 17.9797942 -21.04587913 27.59574173 -16.625 36.4375 C-15.42875 36.788125 -14.2325 37.13875 -13 37.5 C-6.69287776 39.71203028 -3.18527565 45.21034601 -0.3671875 51.0390625 C0.375 53.4375 0.375 53.4375 -0.625 56.4375 C-3.375 56.8125 -3.375 56.8125 -6.625 56.4375 C-9 53.4375 -9 53.4375 -10.625 50.4375 C-12.11 50.9325 -12.11 50.9325 -13.625 51.4375 C-11.73908904 57.47241509 -7.86898161 62.94151226 -2.625 66.4375 C-2.13 64.4575 -2.13 64.4575 -1.625 62.4375 C0.1875 61.8125 0.1875 61.8125 2.375 61.4375 C5.375 63.4375 5.375 63.4375 6.0625 65.125 C7.15813253 73.23268072 7.15813253 73.23268072 4.75 76.9375 C2.375 78.4375 2.375 78.4375 -0.375 78.625 C-9.85470111 75.16126306 -17.32318748 64.96393459 -22.0625 56.375 C-23.67600256 52.87200101 -24.1999655 49.54231607 -24.44921875 45.7109375 C-24.81856343 40.93407966 -25.86566707 36.46629408 -27.1875 31.875 C-29.12187166 24.3167966 -29.88509624 16.01975836 -27.625 8.4375 C-35.85841771 14.56469458 -40.07156598 22.2292193 -41.625 32.4375 C-41.10022755 35.87292891 -39.73503953 37.71203228 -37.625 40.4375 C-36.13291133 44.913766 -36.39969824 49.31042075 -36.375 54 C-36.354375 54.95197266 -36.33375 55.90394531 -36.3125 56.88476562 C-36.26970088 64.74375471 -37.41527282 71.75462136 -41.5 78.5625 C-43.625 80.4375 -43.625 80.4375 -46.125 81 C-49.52765232 80.23440323 -50.57338754 79.26731029 -52.625 76.4375 C-53.61605617 73.74140094 -54.11772755 71.296672 -54.625 68.4375 C-54.295 67.7775 -53.965 67.1175 -53.625 66.4375 C-47.875 66.3125 -47.875 66.3125 -45.625 67.4375 C-44.965 61.4975 -44.305 55.5575 -43.625 49.4375 C-45.275 49.4375 -46.925 49.4375 -48.625 49.4375 C-48.60179687 50.20835938 -48.57859375 50.97921875 -48.5546875 51.7734375 C-48.53664062 52.77632812 -48.51859375 53.77921875 -48.5 54.8125 C-48.47679687 55.81023437 -48.45359375 56.80796875 -48.4296875 57.8359375 C-48.625 60.4375 -48.625 60.4375 -50.625 62.4375 C-53.25 62.0625 -53.25 62.0625 -55.625 61.4375 C-56.6314823 54.283315 -57.2228484 47.32591249 -54.625 40.4375 C-53.96757813 39.65503906 -53.31015625 38.87257812 -52.6328125 38.06640625 C-50.22844239 34.91827185 -49.81865888 32.63706815 -49.1875 28.75 C-47.96471991 22.30323166 -45.91904581 17.08815566 -42.625 11.4375 C-48.6401679 15.50949638 -52.19444906 18.02464514 -53.625 25.4375 C-55.94162331 31.31636819 -59.32625812 35.85217533 -63.625 40.4375 C-65.275 40.1075 -66.925 39.7775 -68.625 39.4375 C-69.4375 37.3125 -69.4375 37.3125 -69.625 34.4375 C-68.02381603 32.38470004 -66.35723664 30.38098501 -64.625 28.4375 C-64.625 27.4475 -64.625 26.4575 -64.625 25.4375 C-69.19990506 27.68939627 -71.00752379 30.19386692 -73.4375 34.625 C-74.04207031 35.71167969 -74.64664063 36.79835937 -75.26953125 37.91796875 C-75.94048828 39.16513672 -75.94048828 39.16513672 -76.625 40.4375 C-74.975 40.7675 -73.325 41.0975 -71.625 41.4375 C-71.295 43.0875 -70.965 44.7375 -70.625 46.4375 C-75.11687864 49.9433565 -77.92179106 50.99663813 -83.625 50.4375 C-85.36922938 48.69327062 -84.96158113 46.4417387 -85.0625 44.0625 C-84.93579975 33.36899917 -78.846148 26.20602748 -71.96875 18.53125 C-68.43239342 15.37210479 -64.91678369 13.72997933 -60.3125 12.6875 C-56.82834877 11.50643179 -55.41357156 10.60322933 -52.6875 8.3125 C-38.62808292 -3.19065943 -16.14570297 -12.44417718 0 0 Z " fill="#056046" transform="translate(84.625,10.5625)"/>
</svg>
